<?xml version="1.0" encoding="UTF-8" standalone="no"?>
<!-- Created with Inkscape (http://www.inkscape.org/) -->

<svg
   version="1.1"
   id="svg1"
   width="1002.0975"
   height="246.92992"
   viewBox="0 0 1002.0974 246.92991"
   sodipodi:docname="b6e34e88-4c69-459a-bbbd-cfef0ab97667.png"
   inkscape:version="0.0"
   inkscape:export-filename="b6e34e88-4c69-459a-bbbd-cfef0ab97667.svg"
   inkscape:export-xdpi="96"
   inkscape:export-ydpi="96"
   xmlns:inkscape="http://www.inkscape.org/namespaces/inkscape"
   xmlns:sodipodi="http://sodipodi.sourceforge.net/DTD/sodipodi-0.dtd"
   xmlns="http://www.w3.org/2000/svg"
   xmlns:svg="http://www.w3.org/2000/svg">
  <defs
     id="defs1" />
  <sodipodi:namedview
     id="namedview1"
     pagecolor="#ffffff"
     bordercolor="#000000"
     borderopacity="0.25"
     inkscape:showpageshadow="2"
     inkscape:pageopacity="0.0"
     inkscape:pagecheckerboard="0"
     inkscape:deskcolor="#d1d1d1"
     inkscape:zoom="0.80999634"
     inkscape:cx="503.08869"
     inkscape:cy="337.65585"
     inkscape:window-width="2560"
     inkscape:window-height="1369"
     inkscape:window-x="-8"
     inkscape:window-y="-8"
     inkscape:window-maximized="1"
     inkscape:current-layer="svg1" />
  <path
     style="display:none;fill:#000000"
     d="m 269.93509,618.66658 c -16.06752,-2.52757 -30.78779,-12.49592 -37.21683,-25.20268 -5.28122,-10.43815 -5.65387,-14.90761 -5.6728,-68.0383 -0.0136,-38.30175 0.25054,-48.76665 1.23264,-48.82768 7.05378,-0.43836 36.26088,0.18855 36.86358,0.79125 0.43348,0.43348 0.92276,20.81276 1.08729,45.28729 l 0.29914,44.49914 2.70084,5.11974 c 2.98307,5.65475 7.4579,9.90627 12.79916,12.16044 4.51081,1.9037 15.56755,1.84518 20.24005,-0.10712 5.47715,-2.2885 12.2431,-9.07685 14.89668,-14.94601 2.35208,-5.2023 2.36468,-5.43424 2.66204,-48.97705 l 0.29877,-43.75 h 18.95123 18.95123 v 68.8 c 0,41.99653 -0.36918,69.17011 -0.94762,69.75 -0.55098,0.55235 -8.50389,0.8271 -19,0.65638 l -18.05238,-0.29363 v -7.27254 -7.27253 l -4.768,4.56616 c -11.10616,10.63601 -28.62814,15.68371 -45.32502,13.05714 z m 418.63194,-0.10333 c -37.13366,-5.40995 -60.95319,-34.38999 -60.73039,-73.88765 0.1963,-34.79966 20.44072,-62.27255 51.89366,-70.42283 7.87427,-2.04043 25.66452,-2.0504 34.28264,-0.0192 11.63865,2.74308 20.54166,7.82129 29.5071,16.83064 13.96006,14.02842 19.79816,29.43928 19.93076,52.6114 l 0.077,13.5 -49.82736,0.25938 -49.82739,0.25938 0.66848,3.24062 c 2.14933,10.41937 9.37509,20.06415 18.32495,24.45973 5.04505,2.47779 6.74999,2.78051 15.66136,2.78069 8.6716,1.7e-4 10.73062,-0.34337 15.5,-2.58616 3.025,-1.4225 7.69366,-4.72279 10.37481,-7.33399 3.03657,-2.95736 5.51372,-4.58056 6.56913,-4.30456 2.95351,0.77236 26.05602,16.7107 26.05602,17.97597 0,1.94041 -12.3392,13.20272 -18.69585,17.06418 -13.80484,8.38599 -32.81275,12.04219 -49.76522,9.5724 z m 38.88571,-91.63765 c -2.26027,-10.132 -10.56647,-19.80779 -19.5717,-22.79885 -11.2255,-3.72851 -25.66302,-0.5744 -33.5717,7.33429 -3.29916,3.29916 -9.27872,14.22973 -9.28044,16.96456 -6.2e-4,0.97358 6.96927,1.25 31.51826,1.25 h 31.51905 z M 80.7781,615.90353 c -18.61152,-0.27005 -18.75065,-0.28851 -18.8375,-2.5 -0.0481,-1.22536 -0.0798,-43.17793 -0.0703,-93.22793 l 0.0172,-91 h 45.82029 c 52.03232,0 54.68547,0.29508 69.55051,7.73526 22.81205,11.4178 35.22983,36.74698 31.80891,64.88228 -2.7163,22.34018 -13.76983,38.67416 -32.26047,47.67182 -14.08145,6.85213 -17.85613,7.47739 -48.02865,7.95581 l -26.74999,0.42415 v 28.2929 c 0,21.50234 -0.30001,28.50229 -1.25,29.16534 -0.6875,0.47984 -9.6875,0.75001 -20,0.60037 z m 68.83635,-95.58168 c 7.37878,-2.35961 12.93454,-6.79754 16.13285,-12.88688 2.42161,-4.61057 2.76264,-6.36962 2.76442,-14.25937 0.002,-10.1406 -1.65483,-14.50514 -7.64599,-20.13805 -7.08583,-6.66211 -7.89647,-6.8303 -34.58763,-7.17633 l -24.25,-0.31439 v 28.67608 28.67607 l 21.25,-0.4753 c 15.80079,-0.35342 22.55431,-0.8924 26.33635,-2.10183 z m 221.42813,93.60375 c 0.008,-0.9625 3.43978,-6.7 7.62628,-12.75 13.93036,-20.13107 52.41066,-77.4704 52.9721,-78.9335 0.3175,-0.82739 -3.18241,-6.89979 -8.21548,-14.25399 -4.82275,-7.04688 -18.5851,-27.09482 -30.583,-44.55098 -11.9979,-17.45616 -21.81437,-32.41866 -21.81437,-33.25 0,-1.30488 3.11034,-1.50937 22.75,-1.4957 l 22.75,0.0158 9.46798,14.73416 c 5.20739,8.1038 14.48988,22.47596 20.62777,31.93815 l 11.15978,17.20397 6.85255,-10.70397 c 3.76889,-5.88715 13.01311,-20.15394 20.5427,-31.70394 l 13.69016,-21 22.07953,-0.26913 c 19.40324,-0.23651 22.07953,-0.081 22.07953,1.28274 0,0.85354 -13.75593,21.6476 -30.56874,46.20904 l -30.56874,44.65716 5.89128,8.5601 c 3.24021,4.70805 17.48866,25.33726 31.66323,45.84268 15.67763,22.67981 25.55138,37.85734 25.20884,38.75 -0.47058,1.22631 -4.0617,1.46741 -21.85653,1.46741 h -21.29343 l -20.82815,-32.25 c -11.45548,-17.7375 -21.27181,-32.925 -21.81408,-33.75 -0.54227,-0.825 -1.17912,-1.05 -1.41522,-0.5 -0.23611,0.55 -10.14883,15.7375 -22.02827,33.75 l -21.59899,32.75 h -21.3956 c -19.71561,0 -21.39446,-0.13741 -21.38113,-1.75 z M 567.02811,520.19674 V 424.6756 h 19.5 19.5 l 0.19681,40.25 c 0.10824,22.1375 0.22074,65 0.25,95.25 l 0.0532,55 -19.75,0.27114 -19.75,0.27114 z M 436.1553,398.59364 c -8.98385,-1.56665 -19.71845,-7.4509 -67.62719,-37.07037 -25.3,-15.64167 -59.9083,-36.96876 -76.90733,-47.39353 -35.16022,-21.56225 -40.16301,-25.64412 -45.90433,-37.45414 -4.69127,-9.65005 -5.67151,-16.3365 -5.68079,-38.75 l -0.008,-18.25 h -41.59572 c -36.71078,0 -41.92086,-0.19208 -44.36446,-1.63554 -5.58355,-3.29829 -7.46586,-9.70615 -4.5229,-15.39719 3.06822,-5.93329 3.34687,-5.96727 48.93341,-5.96727 h 41.54967 v -18.47796 -18.47797 l -62.58243,-0.27203 -62.58243,-0.27204 -2.86397,-3.20578 c -5.79031,-6.48138 -4.42411,-14.75616 3.06284,-18.55098 3.21026,-1.62715 7.94808,-1.73782 64.21615,-1.5 l 60.75017,0.25676 -1.6e-4,-19.75 -1.7e-4,-19.750003 h -41.10001 -41.1 l -3.4,-3.4 c -2.77421,-2.774209 -3.4,-4.163769 -3.4,-7.549659 0,-5.5343 2.16818,-9.42773 6.35708,-11.4155 3.00817,-1.42746 8.46041,-1.63484 42.98278,-1.63484 h 39.5376 l 0.64777,-4.75 c 1.83917,-13.48637 7.37087,-24.83773 15.06883,-30.92212 6.80748,-5.38057 163.7709,-99.73562 173.39344,-104.2316 4.70069,-2.19632 6.91157,-2.57716 15.01251,-2.58595 8.5635,-0.009 10.14543,0.29553 16.04733,3.0923 3.60103,1.70644 33.30103,19.08323 66,38.61508 32.69897,19.5318506 68.87499,41.08567 80.39117,47.89738 24.01232,14.20306 30.66422,19.70564 35.80834,29.62135 6.49662,12.52275 6.25316,8.03508 6.25316,115.263562 v 97.5 l -2.23931,7.12004 c -2.67537,8.50652 -8.66517,17.83163 -14.55261,22.65594 -2.35497,1.92973 -17.31519,11.58411 -33.24492,21.45419 -15.92974,9.87008 -45.16316,27.97186 -64.96316,40.22617 -19.8,12.25432 -40.05,24.84742 -45,27.98468 -24.45067,15.49658 -37.1871,19.62518 -52.37281,16.97702 z m 20.62965,-24.19777 c 3.15874,-1.29453 24.41816,-14.05485 47.24316,-28.35625 22.825,-14.3014 56.8,-35.37866 75.5,-46.83836 18.7,-11.4597 35.87014,-22.33645 38.15586,-24.17055 2.28572,-1.8341 5.1515,-5.39144 6.36839,-7.9052 l 2.21253,-4.57047 -0.14519,-97.68239 c -0.0948,-63.79086 -0.50469,-99.017472 -1.18134,-101.530362 -1.61199,-5.98645 -8.03458,-12.01154 -20.79665,-19.5095 -67.07929,-39.4103697 -92.06156,-54.147519 -118.1136,-69.67571 -37.45423,-22.32441 -35.80652,-21.48147 -41.99018,-21.48147 -6.47334,0 -5.74397,-0.3823 -51.50982,26.99909 -20.9,12.5043307 -54.65,32.65508 -75,44.77944 -47.34199,28.20597 -48.40482,28.90178 -51.95756,34.0155 -2.94353,4.23685 -2.99463,4.53653 -3.83652,22.5 -0.46929,10.01328 -0.66196,54.664942 -0.42814,99.225922 0.41314,78.73828 0.48215,81.14612 2.45057,85.5 1.114,2.46402 3.76835,6.09701 5.89855,8.07331 2.13021,1.9763 19.6231,13.27095 38.8731,25.09921 19.25,11.82827 54.125,33.34247 77.5,47.80934 23.375,14.46688 44.75,27.38513 47.5,28.70723 4.18309,2.01107 6.02225,2.31894 11.25684,1.88437 3.44126,-0.2857 8.84126,-1.57861 12,-2.87315 z m -56.75684,-40.2774 -34.5,-21.25881 -0.26199,-38.20362 c -0.24778,-36.13154 -0.16642,-38.16715 1.5,-37.53122 2.25942,0.86223 65.34597,39.43853 67.02406,40.98401 0.98266,0.90501 1.20406,9.58711 1,39.2154 l -0.26207,38.05305 z m 54,-17.73225 v -38.28939 l 30.19051,-18.46061 c 16.60478,-10.15334 32.35478,-19.70722 35,-21.23085 l 4.80949,-2.77023 v 38.00604 38.00604 l -3.75,2.41945 c -9.81933,6.3353 -65.31314,40.60893 -65.75154,40.60893 -0.27415,0 -0.49846,-17.23022 -0.49846,-38.28938 z m -137.5,-33.75713 c -16.5,-10.37718 -31.4625,-20.45532 -33.25,-22.39586 l -3.25,-3.52826 v -36.50218 -36.50218 l 16.75,10.14153 c 9.2125,5.57783 24.2875,14.83083 33.5,20.5622 l 16.75,10.42068 v 38.42529 c 0,21.13391 -0.1125,38.38504 -0.25,38.33584 -0.1375,-0.0492 -13.75,-8.57987 -30.25,-18.95706 z m 225.5,-19.71015 v -37.75665 l 23.75,-14.43737 c 13.0625,-7.94055 27.93603,-17.05006 33.0523,-20.24334 5.11626,-3.19329 9.50376,-5.80598 9.75,-5.80598 0.24623,0 0.44493,15.8625 0.44154,35.25 -0.007,37.87496 -0.15266,39.05575 -5.27769,42.67349 -3.25413,2.29707 -60.89043,38.07651 -61.33661,38.07651 -0.20875,0 -0.37954,-16.9905 -0.37954,-37.75666 z m -142.25,-26.88443 -34.75,-21.58212 v -39.3884 c 0,-21.66361 0.36075,-39.38839 0.80167,-39.38839 0.63209,0 34.47229,20.26189 64.94833,38.88796 l 4.25,2.59748 v 40.25728 c 0,22.1415 -0.1125,40.24401 -0.25,40.22779 -0.1375,-0.0162 -15.8875,-9.74144 -35,-21.6116 z m 54.25,-19.1622 v -39.80328 l 34.25,-20.56752 c 18.8375,-11.31214 34.57231,-20.38349 34.96624,-20.15857 0.39393,0.22493 0.7077,17.82929 0.69726,39.12081 l -0.019,38.71185 -8.69726,5.6627 c -4.78347,3.11448 -19.72224,12.26706 -33.19724,20.33906 -13.475,8.072 -24.9275,15.08629 -25.45,15.5873 -0.5225,0.50102 -1.31,0.91094 -1.75,0.91094 -0.44,0 -0.8,-17.91148 -0.8,-39.80329 z m -140.5,-33.50129 -33,-20.2509 -0.26155,-39.80944 c -0.14385,-21.8952 0.10264,-39.657712 0.54777,-39.472262 0.44513,0.18545 15.52533,9.333649 33.51155,20.329342 l 32.70223,19.99215 v 39.75785 c 0,21.86681 -0.1125,39.74576 -0.25,39.731 -0.1375,-0.0148 -15.1,-9.13974 -33.25,-20.27774 z m 228.5,-19.14581 v -39.61706 l 3.29379,-1.94338 c 1.81159,-1.06887 16.54909,-10.04575 32.75,-19.94863 l 29.45621,-18.005242 0.5,38.732352 c 0.275,21.30279 0.37875,39.19219 0.23056,39.75421 -0.21024,0.79731 -62.08337,38.91717 -65.43039,40.31147 -0.44009,0.18334 -0.80017,-17.49434 -0.80017,-39.28372 z m -125,-18.6586 c -14.575,-8.90066 -29.97644,-18.25482 -34.22542,-20.78702 -4.24899,-2.53219 -7.71845,-4.82899 -7.70993,-5.10399 0.0162,-0.52247 55.70494,-34.684432 64.47544,-39.552112 l 5.0401,-2.79729 34.7099,20.817189 c 19.09045,11.449453 34.7043,21.090563 34.69744,21.424703 -0.0163,0.79541 -66.56476,41.18852 -68.78476,41.75049 -0.99026,0.25068 -12.79147,-6.3406 -28.20277,-15.75197 z m 80.43687,-56.914622 c -19.21475,-11.53542 -35.04917,-21.31328 -35.1876,-21.72858 -0.13843,-0.4153 7.73635,-5.52674 17.49952,-11.35874 35.63467,-21.2863 52.03837,-30.88906 52.76555,-30.88906 1.21662,0 70.48624,41.12226 70.47915,41.84031 -0.005,0.52823 -45.27345,28.237159 -65.97657,40.384612 l -4.64415,2.72494 z m -175.93687,-0.50426 c -18.7,-11.27567 -34,-20.9302 -34,-21.45452 0,-0.80733 39.59275,-25.33484 61.76691,-38.2643 l 6.76691,-3.94569 34.98309,20.84495 c 19.2407,11.46473 34.98309,21.12094 34.98309,21.45826 0,0.82341 -66.62341,40.995532 -68.79411,41.480992 -0.95031,0.21253 -16.76523,-8.698923 -35.70589,-20.119692 z m 87.00053,-53.0115 c -18.69971,-11.2516 -34.13325,-20.85879 -34.29676,-21.34932 -0.46136,-1.38407 68.42607,-42.31051 70.58824,-41.9369 2.03837,0.35221 70.15614,40.97749 70.18843,41.86022 0.0337,0.92116 -69.51469,41.96756 -71.03607,41.92441 -0.79441,-0.0225 -16.74413,-9.24682 -35.44384,-20.49841 z"
     id="path60" />
  <g
     id="g90"
     transform="translate(-4.0456282,-7.2563427)">
    <rect
       style="fill:#5527d6;fill-opacity:1"
       id="rect89"
       width="76.385338"
       height="14.404092"
       x="698.63202"
       y="46.335091" />
    <path
       style="display:inline;fill:#5527d6;fill-opacity:1"
       d="m 512.55038,236.17876 c -16.06752,-2.52757 -30.78779,-12.49592 -37.21682,-25.20268 -5.28122,-10.43815 -5.65387,-14.90761 -5.6728,-68.0383 -0.0136,-38.30175 0.25054,-48.766649 1.23264,-48.827679 7.05377,-0.43836 36.26087,0.18855 36.86357,0.79125 0.43348,0.43348 0.92276,20.812759 1.08729,45.287289 l 0.29914,44.49914 2.70084,5.11974 c 2.98307,5.65475 7.4579,9.90627 12.79916,12.16044 4.51081,1.9037 15.56755,1.84518 20.24005,-0.10712 5.47715,-2.2885 12.2431,-9.07685 14.89668,-14.94601 2.35208,-5.2023 2.36468,-5.43424 2.66204,-48.97705 l 0.29877,-43.749999 h 18.95123 18.95123 v 68.799999 c 0,41.99653 -0.36918,69.17011 -0.94762,69.75 -0.55098,0.55235 -8.50389,0.8271 -19,0.65638 l -18.05238,-0.29363 v -7.27254 -7.27253 l -4.768,4.56616 c -11.10616,10.63601 -28.62814,15.68371 -45.32502,13.05714 z m 418.63207,-0.10333 c -37.1337,-5.40995 -60.9532,-34.38999 -60.7304,-73.88765 0.1963,-34.79966 20.4407,-62.272549 51.8936,-70.422829 7.8743,-2.04043 25.6646,-2.0504 34.2827,-0.0192 11.6386,2.74308 20.5416,7.82129 29.5071,16.830639 13.96005,14.02842 19.79815,29.43928 19.93075,52.6114 l 0.077,13.5 -49.82735,0.25938 -49.8274,0.25938 0.6685,3.24062 c 2.1493,10.41937 9.3751,20.06415 18.3249,24.45973 5.0451,2.47779 6.75,2.78051 15.6614,2.78069 8.6716,1.7e-4 10.7306,-0.34337 15.5,-2.58616 3.025,-1.4225 7.6936,-4.72279 10.3748,-7.33399 3.0366,-2.95736 5.5137,-4.58056 6.5691,-4.30456 2.9535,0.77236 26.05608,16.7107 26.05608,17.97597 0,1.94041 -12.33928,13.20272 -18.69588,17.06418 -13.8048,8.38599 -32.8128,12.04219 -49.7652,9.5724 z m 38.8857,-91.63765 c -2.2603,-10.132 -10.5665,-19.80779 -19.5717,-22.79885 -11.2255,-3.72851 -25.663,-0.5744 -33.5717,7.33429 -3.2992,3.29916 -9.2787,14.22973 -9.2805,16.96456 -6e-4,0.97358 6.9693,1.25 31.5183,1.25 h 31.5191 z m -646.67476,88.97793 c -18.61152,-0.27005 -18.75065,-0.28851 -18.8375,-2.5 -0.0481,-1.22536 -0.0798,-43.17793 -0.0703,-93.22793 l 0.0172,-90.999999 h 45.82029 c 52.03233,0 54.68548,0.29508 69.55052,7.73526 22.81205,11.4178 35.22983,36.74698 31.80891,64.882279 -2.7163,22.34018 -13.76983,38.67416 -32.26047,47.67182 -14.08145,6.85213 -17.85613,7.47739 -48.02865,7.95581 l -26.75,0.42415 V 203.65 c 0,21.50234 -0.30001,28.50229 -1.25,29.16534 -0.6875,0.47984 -9.6875,0.75001 -20,0.60037 z m 68.83636,-95.58168 c 7.37878,-2.35961 12.93454,-6.79754 16.13285,-12.88688 2.42161,-4.61057 2.76264,-6.36962 2.76442,-14.25937 0.002,-10.1406 -1.65483,-14.505139 -7.64599,-20.138049 -7.08583,-6.66211 -7.89647,-6.8303 -34.58763,-7.17633 l -24.25001,-0.31439 v 28.676079 28.67607 l 21.25001,-0.4753 c 15.80079,-0.35342 22.55431,-0.8924 26.33635,-2.10183 z m 221.42812,93.60375 c 0.008,-0.9625 3.43978,-6.7 7.62628,-12.75 13.93036,-20.13107 52.41066,-77.4704 52.9721,-78.9335 0.3175,-0.82739 -3.18241,-6.89979 -8.21548,-14.25399 -4.82275,-7.04688 -18.5851,-27.094819 -30.583,-44.550979 -11.9979,-17.45616 -21.81437,-32.41866 -21.81437,-33.25 0,-1.30488 3.11034,-1.50937 22.75,-1.4957 l 22.75,0.0158 9.46798,14.73416 c 5.20739,8.1038 14.48988,22.47596 20.62777,31.93815 l 11.15978,17.203969 6.85255,-10.703969 c 3.76889,-5.88715 13.01309,-20.15394 20.54269,-31.70394 l 13.6902,-21 22.0795,-0.26913 c 19.4033,-0.23651 22.0796,-0.081 22.0796,1.28274 0,0.85354 -13.756,21.6476 -30.5688,46.20904 l -30.5687,44.657159 5.8913,8.5601 c 3.2402,4.70805 17.4886,25.33726 31.6632,45.84268 15.6776,22.67981 25.5514,37.85734 25.2088,38.75 -0.4706,1.22631 -4.0617,1.46741 -21.8565,1.46741 h -21.2934 l -20.8282,-32.25 c -11.45549,-17.7375 -21.27182,-32.925 -21.81409,-33.75 -0.54227,-0.825 -1.17912,-1.05 -1.41522,-0.5 -0.23611,0.55 -10.14883,15.7375 -22.02827,33.75 l -21.59899,32.75 H 635.039 c -19.71561,0 -21.39446,-0.13741 -21.38113,-1.75 z m 195.9856,-93.72886 V 42.187781 h 19.5 19.5 l 0.1968,40.25 c 0.1082,22.137499 0.2207,64.999999 0.25,95.249999 l 0.053,55 -19.75,0.27114 -19.75,0.27114 z"
       id="path62"
       sodipodi:nodetypes="sssssscssssscccssscccsssssssscccsssssssssssssscsssscssssscssssscsscccssssssssscsscsscssscsssscsssscssccccsscccc" />
    <rect
       style="fill:#5527d6;fill-opacity:1"
       id="rect89-8"
       width="76.385338"
       height="14.404092"
       x="629.75165"
       y="218.76015" />
    <rect
       style="fill:#5527d6;fill-opacity:1"
       id="rect89-5"
       width="76.385338"
       height="14.404092"
       x="618.45306"
       y="139.51816" />
    <rect
       style="fill:#5527d6;fill-opacity:1"
       id="rect89-5-7"
       width="76.385338"
       height="14.404092"
       x="706.27112"
       y="124.59591" />
  </g>
  <g
     id="g89"
     transform="matrix(0.52633115,0,0,0.52633115,-55.064495,-18.579802)">
    <path
       d="m 440.23437,35.300781 c -8.10099,0.0088 -10.31297,0.38962 -15.01367,2.585938 -9.62249,4.495975 -166.5851,98.851861 -173.39258,104.232421 -7.69795,6.08438 -13.22919,17.43551 -15.06835,30.92188 l -0.64844,4.75 h -39.53711 c -34.52234,0 -39.97426,0.2073 -42.98242,1.63476 -4.1889,1.98777 -6.35743,5.87977 -6.35743,11.41406 10e-6,3.38589 0.62619,4.77658 3.4004,7.55078 l 3.39843,3.4004 h 41.10157 41.0996 v 19.75 19.75 l -60.75,-0.25782 c -56.26801,-0.23782 -61.00654,-0.12715 -64.21679,1.5 -7.48694,3.79482 -8.85281,12.06941 -3.0625,18.55078 l 2.86328,3.20704 62.58398,0.27148 62.58203,0.27148 v 18.47852 18.47852 h -41.55078 c -45.58649,0 -45.86342,0.0335 -48.93164,5.96679 -2.94295,5.69104 -1.06206,12.0982 4.52149,15.39649 2.4436,1.44346 7.65449,1.63672 44.36523,1.63672 h 41.5957 l 0.008,18.25 c 0.009,22.41347 0.99037,29.09996 5.68164,38.75 5.74131,11.81 10.74411,15.89089 45.90429,37.45312 16.99902,10.42476 51.60638,31.75288 76.90625,47.39453 47.90866,29.61944 58.64307,35.50367 67.62696,37.07031 15.18578,2.64816 27.92237,-1.48195 52.37304,-16.97851 4.95,-3.13726 25.20002,-15.73007 45,-27.98438 19.79999,-12.25429 49.03321,-30.35454 64.9629,-40.22461 15.92968,-9.87007 30.88924,-19.52535 33.24414,-21.45507 5.88749,-4.82431 11.87743,-14.14974 14.55273,-22.65625 l 2.24023,-7.11914 v -97.5 c 10e-6,-107.22839 0.24269,-102.74093 -6.2539,-115.26368 -5.1441,-9.9157 -11.79633,-15.41804 -35.8086,-29.62109 -11.51618,-6.81171 -47.69165,-28.366608 -80.39062,-47.898438 -32.69897,-19.53183 -62.399,-36.908796 -66,-38.615234 -5.90189,-2.796767 -7.48338,-3.100797 -16.04688,-3.091797 z m 0.01,22.490235 c 6.18369,0 4.53607,-0.843919 41.99023,21.480468 26.05198,15.528175 51.03405,30.265456 118.11329,69.675786 12.76208,7.49795 19.18487,13.52331 20.79687,19.50976 0.6766,2.51289 1.08664,37.74046 1.18164,101.53125 l 0.14453,97.68164 -2.21093,4.57031 c -1.2169,2.51376 -4.08345,6.0702 -6.36915,7.9043 -2.28579,1.8341 -19.45626,12.71219 -38.15625,24.17188 -18.69998,11.45968 -52.67502,32.5365 -75.5,46.83789 -22.82497,14.30138 -44.08339,27.06094 -47.24218,28.35547 -3.1587,1.29453 -8.55871,2.58734 -12,2.87304 -5.2345,0.43457 -7.07472,0.12826 -11.25782,-1.88281 -2.74999,-1.3221 -24.12502,-14.24017 -47.5,-28.70703 -23.37497,-14.46686 -58.25001,-35.98229 -77.5,-47.81055 -19.24998,-11.82825 -36.74283,-23.12331 -38.87304,-25.09961 -2.1302,-1.9763 -4.78444,-5.60825 -5.89844,-8.07226 -1.96842,-4.35388 -2.03803,-6.7618 -2.45117,-85.5 -0.23382,-44.56094 -0.0396,-89.2133 0.42969,-99.22657 0.84189,-17.96345 0.89241,-18.26315 3.83593,-22.5 3.55274,-5.11372 4.61509,-5.80968 51.95703,-34.01562 20.34999,-12.12436 54.10003,-32.274981 75,-44.779298 45.76586,-27.381362 45.03648,-26.998046 51.50977,-26.998046 z"
       style="display:inline;fill:#5628d7"
       id="path72" />
    <path
       d="m 604.78711,289.79102 c 0.2462,0 0.44481,15.86252 0.44141,35.25 -0.01,37.87492 -0.15235,39.05413 -5.27735,42.67187 -3.25419,2.29707 -60.89169,38.07813 -61.33789,38.07813 -0.2087,0 -0.3789,-16.99168 -0.37891,-37.75782 v -37.75586 l 23.75,-14.4375 c 13.06249,-7.94054 27.93644,-17.05086 33.05274,-20.24414 5.11629,-3.19328 9.5038,-5.80468 9.75,-5.80468 z"
       style="display:inline;fill:#ffc919;fill-opacity:1"
       id="path84" />
    <path
       d="m 519.45117,241.45703 c 0.394,0.22493 0.70767,17.82963 0.69727,39.12109 l -0.0195,38.7129 -8.69727,5.6621 c -4.78338,3.11448 -19.72229,12.26787 -33.19727,20.33985 -13.47496,8.07198 -24.92671,15.08493 -25.44921,15.58594 -0.5225,0.50102 -1.31,0.91211 -1.75,0.91211 -0.44,0 -0.80079,-17.91292 -0.80079,-39.80469 v -39.80274 l 34.25,-20.5664 c 18.83748,-11.31212 34.5729,-20.38508 34.9668,-20.16016 z"
       style="display:inline;fill:#ffc31b;fill-opacity:1"
       id="path86" />
    <path
       d="m 520.23437,340.75 v 38.00586 38.00586 l -3.75,2.41992 c -9.81929,6.33529 -65.31355,40.60938 -65.75195,40.60938 -0.2742,0 -0.49805,-17.23188 -0.49805,-38.29102 V 383.21094 L 480.42578,364.75 c 16.60478,-10.15333 32.3548,-19.70684 35,-21.23047 z"
       style="display:inline;fill:#eb2837;fill-opacity:1"
       id="path82" />
    <path
       d="m 440.81445,182.44141 -5.03906,2.79687 c -8.77048,4.86768 -64.46056,39.03027 -64.47656,39.55274 -0.009,0.275 3.46194,2.57132 7.71094,5.10351 4.24898,2.5322 19.64964,11.88647 34.2246,20.78711 15.41128,9.41135 27.21283,16.00263 28.20313,15.75195 2.22,-0.56197 68.76916,-40.95459 68.78516,-41.75 0.007,-0.33414 -15.60691,-9.97635 -34.69727,-21.42578 z"
       style="display:inline;fill:#20cf78;fill-opacity:1"
       id="path85" />
    <path
       d="m 362.41992,342.1875 c 0.16122,-0.0654 0.34444,-0.0268 0.55274,0.0527 2.25939,0.86223 65.34534,39.43695 67.02343,40.98243 0.9826,0.90501 1.204,9.58853 1,39.21679 l -0.26172,38.05274 -34.5,-21.25977 -34.5,-21.25781 -0.26171,-38.20313 c -0.21683,-31.61506 -0.18129,-37.12639 0.94726,-37.58398 z"
       style="display:inline;fill:#ec2838;fill-opacity:1"
       id="path81" />
    <path
       d="m 276.23437,288.81445 v 36.50391 36.50195 l 3.25,3.52735 c 1.7875,1.94053 16.75002,12.01931 33.25,22.39648 16.49999,10.37718 30.11251,18.90783 30.25,18.95703 0.1375,0.0492 0.25,-17.20205 0.25,-38.33594 v -38.42578 l -16.75,-10.41992 c -9.21249,-5.73136 -24.2875,-14.98467 -33.5,-20.5625 z"
       style="display:inline;fill:#0acc80;fill-opacity:1"
       id="path80" />
    <path
       d="m 603.73437,189.82617 0.5,38.73242 c 0.275,21.30275 0.37867,39.19189 0.23047,39.75391 -0.2103,0.79731 -62.0827,38.91625 -65.42968,40.31055 -0.4401,0.18334 -0.80078,-17.49387 -0.80079,-39.28321 v -39.61718 l 3.29297,-1.94336 c 1.8116,-1.06887 16.54914,-10.04636 32.75,-19.94922 z"
       style="display:inline;fill:#6e24d9;fill-opacity:1"
       id="path89" />
    <path
       d="m 528.74805,129.79102 c -0.7271,0 -17.13099,9.60241 -52.76563,30.88867 -9.76318,5.83199 -17.63653,10.94407 -17.49805,11.35937 0.1384,0.4153 15.97274,10.19312 35.1875,21.72852 l 34.93555,20.97265 4.64453,-2.72461 c 20.70306,-12.14741 65.97657,-39.85653 65.97657,-40.38476 0.007,-0.71805 -69.26377,-41.83984 -70.48047,-41.83984 z"
       style="display:inline;fill:#1c63fd;fill-opacity:1"
       id="path88" />
    <path
       d="m 362.03711,240.79102 c -0.4409,0 -0.80274,17.7251 -0.80274,39.38867 v 39.38672 l 34.75,21.58203 c 19.11248,11.87014 34.86252,21.59708 35,21.61328 0.1375,0.0162 0.25,-18.08706 0.25,-40.22852 v -40.25781 l -4.25,-2.59766 C 396.50845,261.0517 362.66921,240.79102 362.03711,240.79102 Z"
       style="display:inline;fill:#1c60fd;fill-opacity:1"
       id="path87" />
    <path
       d="m 277.02148,188.95312 c -0.44513,-0.18544 -0.69267,17.57748 -0.54882,39.47266 l 0.26171,39.80859 33,20.25196 c 18.14999,11.13799 33.11251,20.26254 33.25,20.27734 0.1375,0.0148 0.25,-17.86368 0.25,-39.73047 V 229.27539 L 310.5332,209.2832 C 292.547,198.28752 277.46661,189.13857 277.02148,188.95312 Z"
       style="display:inline;fill:#ec2737;fill-opacity:1"
       id="path78" />
    <path
       d="m 441.02734,76.964844 c -2.16219,-0.37361 -71.05124,40.553436 -70.58984,41.937496 0.1635,0.49053 15.59719,10.09607 34.29687,21.34766 18.69969,11.25158 34.65092,20.4775 35.44532,20.5 1.5214,0.0431 71.06915,-41.00462 71.03515,-41.92578 -0.0322,-0.88273 -68.1491,-41.507167 -70.1875,-41.859376 z"
       style="display:inline;fill:#fe5035;fill-opacity:1"
       id="path77" />
    <path
       d="m 352.26758,129.59766 -6.76563,3.94531 c -22.17413,12.92945 -61.76758,37.45829 -61.76758,38.26562 0,0.52432 15.30002,10.17747 34,21.45313 18.9407,11.42076 34.75478,20.33362 35.70508,20.12109 2.1707,-0.48546 68.79492,-40.65901 68.79492,-41.48242 10e-6,-0.33732 -15.74174,-9.99231 -34.98242,-21.45703 z"
       style="display:inline;fill:#fe5235;fill-opacity:1"
       id="path76" />
  </g>
</svg>
